<svg xmlns="http://www.w3.org/2000/svg" width="34" height="34" viewBox="0 0 34 34"><defs><style>.a{fill:#eceff1;}.b{fill:#455a64;}</style></defs><circle class="a" cx="17" cy="17" r="17"/><path class="b" d="M88.365,86.268A6.192,6.192,0,0,0,85.8,85.082l-4.573-.918a1.031,1.031,0,0,1-.826-1.022V82.093a12.53,12.53,0,0,0,.861-1.535,8.426,8.426,0,0,1,.734-1.287,6.818,6.818,0,0,0,2.1-3.322,3.2,3.2,0,0,0-.294-2.461,18.473,18.473,0,0,0-.357-4.215A4.6,4.6,0,0,0,82.352,65.9a3.225,3.225,0,0,0-1.937-.813,3.386,3.386,0,0,1-.711-.167A7.359,7.359,0,0,0,76.182,64c-2.747.113-6.123,1.86-7.253,4.976a11.837,11.837,0,0,0-.286,3.758l-.027.753a3.34,3.34,0,0,0-.273,2.461,6.806,6.806,0,0,0,2.113,3.339,9.154,9.154,0,0,1,.732,1.28,12.961,12.961,0,0,0,.868,1.529v1.049a1.036,1.036,0,0,1-.83,1.022l-4.578.918a6.206,6.206,0,0,0-2.561,1.185,1.045,1.045,0,0,0-.123,1.518,16.6,16.6,0,0,0,24.525,0,1.045,1.045,0,0,0-.123-1.518Z" transform="translate(-59.542 -59.829)"/></svg>